<svg width="375" height="85" viewBox="0 0 375 85" fill="none" xmlns="http://www.w3.org/2000/svg">
<circle cx="2.5" cy="2.5" r="2.5" transform="matrix(-1 0 0 1 257 40)" fill="#BDF0E8"/>
<circle cx="2" cy="2" r="2" transform="matrix(-1 0 0 1 247.5 33)" fill="#BDF0E8"/>
<circle cx="2.5" cy="2.5" r="2.5" transform="matrix(-1 0 0 1 248 40)" fill="#BDF0E8"/>
<circle cx="2" cy="2" r="2" transform="matrix(-1 0 0 1 247.5 48)" fill="#BDF0E8"/>
<circle cx="2" cy="2" r="2" transform="matrix(-1 0 0 1 238.5 26)" fill="#BDF0E8"/>
<circle cx="2" cy="2" r="2" transform="matrix(-1 0 0 1 238.5 33)" fill="#BDF0E8"/>
<circle cx="2.5" cy="2.5" r="2.5" transform="matrix(-1 0 0 1 239 40)" fill="#BDF0E8"/>
<circle cx="2" cy="2" r="2" transform="matrix(-1 0 0 1 238.5 48)" fill="#BDF0E8"/>
<circle cx="2" cy="2" r="2" transform="matrix(-1 0 0 1 238.5 55)" fill="#BDF0E8"/>
<circle cx="1" cy="1" r="1" transform="matrix(-1 0 0 1 228.5 0)" fill="#BDF0E8"/>
<circle cx="1" cy="1" r="1" transform="matrix(-1 0 0 1 228.5 5)" fill="#BDF0E8"/>
<circle cx="1" cy="1" r="1" transform="matrix(-1 0 0 1 228.5 10)" fill="#BDF0E8"/>
<circle cx="1" cy="1" r="1" transform="matrix(-1 0 0 1 228.5 15)" fill="#BDF0E8"/>
<circle cx="1.5" cy="1.5" r="1.5" transform="matrix(-1 0 0 1 229 20)" fill="#BDF0E8"/>
<circle cx="2" cy="2" r="2" transform="matrix(-1 0 0 1 229.5 26)" fill="#BDF0E8"/>
<circle cx="2" cy="2" r="2" transform="matrix(-1 0 0 1 229.5 33)" fill="#BDF0E8"/>
<circle cx="2.5" cy="2.5" r="2.5" transform="matrix(-1 0 0 1 230 40)" fill="#BDF0E8"/>
<circle cx="2" cy="2" r="2" transform="matrix(-1 0 0 1 229.5 48)" fill="#BDF0E8"/>
<circle cx="2" cy="2" r="2" transform="matrix(-1 0 0 1 229.5 55)" fill="#BDF0E8"/>
<circle cx="1.5" cy="1.5" r="1.5" transform="matrix(-1 0 0 1 229 62)" fill="#BDF0E8"/>
<circle cx="1" cy="1" r="1" transform="matrix(-1 0 0 1 228.5 68)" fill="#BDF0E8"/>
<circle cx="1" cy="1" r="1" transform="matrix(-1 0 0 1 228.5 73)" fill="#BDF0E8"/>
<circle cx="1" cy="1" r="1" transform="matrix(-1 0 0 1 228.5 78)" fill="#BDF0E8"/>
<circle cx="1" cy="1" r="1" transform="matrix(-1 0 0 1 228.5 83)" fill="#BDF0E8"/>
<circle cx="1" cy="1" r="1" transform="matrix(-1 0 0 1 219.5 10)" fill="#BDF0E8"/>
<circle cx="1" cy="1" r="1" transform="matrix(-1 0 0 1 219.5 15)" fill="#BDF0E8"/>
<circle cx="1.5" cy="1.5" r="1.5" transform="matrix(-1 0 0 1 220 20)" fill="#BDF0E8"/>
<circle cx="2" cy="2" r="2" transform="matrix(-1 0 0 1 220.5 26)" fill="#BDF0E8"/>
<circle cx="2" cy="2" r="2" transform="matrix(-1 0 0 1 220.5 33)" fill="#BDF0E8"/>
<circle cx="2.5" cy="2.5" r="2.5" transform="matrix(-1 0 0 1 221 40)" fill="#BDF0E8"/>
<circle cx="2" cy="2" r="2" transform="matrix(-1 0 0 1 220.5 48)" fill="#BDF0E8"/>
<circle cx="2" cy="2" r="2" transform="matrix(-1 0 0 1 220.5 55)" fill="#BDF0E8"/>
<circle cx="1.5" cy="1.5" r="1.5" transform="matrix(-1 0 0 1 220 62)" fill="#BDF0E8"/>
<circle cx="1" cy="1" r="1" transform="matrix(-1 0 0 1 219.5 68)" fill="#BDF0E8"/>
<circle cx="1" cy="1" r="1" transform="matrix(-1 0 0 1 219.5 73)" fill="#BDF0E8"/>
<circle cx="1" cy="1" r="1" transform="matrix(-1 0 0 1 210.5 15)" fill="#BDF0E8"/>
<circle cx="1.5" cy="1.5" r="1.5" transform="matrix(-1 0 0 1 211 20)" fill="#BDF0E8"/>
<circle cx="2" cy="2" r="2" transform="matrix(-1 0 0 1 211.5 26)" fill="#BDF0E8"/>
<circle cx="2" cy="2" r="2" transform="matrix(-1 0 0 1 211.5 33)" fill="#BDF0E8"/>
<circle cx="2.5" cy="2.5" r="2.5" transform="matrix(-1 0 0 1 212 40)" fill="#BDF0E8"/>
<circle cx="2" cy="2" r="2" transform="matrix(-1 0 0 1 211.5 48)" fill="#BDF0E8"/>
<circle cx="2" cy="2" r="2" transform="matrix(-1 0 0 1 211.5 55)" fill="#BDF0E8"/>
<circle cx="1.5" cy="1.5" r="1.5" transform="matrix(-1 0 0 1 211 62)" fill="#BDF0E8"/>
<circle cx="1" cy="1" r="1" transform="matrix(-1 0 0 1 210.5 68)" fill="#BDF0E8"/>
<circle cx="1" cy="1" r="1" transform="matrix(-1 0 0 1 201.5 0)" fill="#BDF0E8"/>
<circle cx="1" cy="1" r="1" transform="matrix(-1 0 0 1 201.5 5)" fill="#BDF0E8"/>
<circle cx="1" cy="1" r="1" transform="matrix(-1 0 0 1 201.5 10)" fill="#BDF0E8"/>
<circle cx="1" cy="1" r="1" transform="matrix(-1 0 0 1 201.5 15)" fill="#BDF0E8"/>
<circle cx="1.5" cy="1.5" r="1.5" transform="matrix(-1 0 0 1 202 20)" fill="#BDF0E8"/>
<circle cx="2" cy="2" r="2" transform="matrix(-1 0 0 1 202.5 26)" fill="#BDF0E8"/>
<circle cx="2" cy="2" r="2" transform="matrix(-1 0 0 1 202.5 33)" fill="#BDF0E8"/>
<circle cx="2.5" cy="2.5" r="2.5" transform="matrix(-1 0 0 1 203 40)" fill="#BDF0E8"/>
<circle cx="2" cy="2" r="2" transform="matrix(-1 0 0 1 202.5 48)" fill="#BDF0E8"/>
<circle cx="2" cy="2" r="2" transform="matrix(-1 0 0 1 202.5 55)" fill="#BDF0E8"/>
<circle cx="1.5" cy="1.5" r="1.5" transform="matrix(-1 0 0 1 202 62)" fill="#BDF0E8"/>
<circle cx="1" cy="1" r="1" transform="matrix(-1 0 0 1 201.5 68)" fill="#BDF0E8"/>
<circle cx="1" cy="1" r="1" transform="matrix(-1 0 0 1 201.5 73)" fill="#BDF0E8"/>
<circle cx="1" cy="1" r="1" transform="matrix(-1 0 0 1 201.5 78)" fill="#BDF0E8"/>
<circle cx="1" cy="1" r="1" transform="matrix(-1 0 0 1 201.5 83)" fill="#BDF0E8"/>
<circle cx="1" cy="1" r="1" transform="matrix(-1 0 0 1 192.5 10)" fill="#BDF0E8"/>
<circle cx="1" cy="1" r="1" transform="matrix(-1 0 0 1 192.5 15)" fill="#BDF0E8"/>
<circle cx="1.5" cy="1.5" r="1.5" transform="matrix(-1 0 0 1 193 20)" fill="#BDF0E8"/>
<circle cx="2" cy="2" r="2" transform="matrix(-1 0 0 1 193.5 26)" fill="#BDF0E8"/>
<circle cx="2" cy="2" r="2" transform="matrix(-1 0 0 1 193.5 33)" fill="#BDF0E8"/>
<circle cx="2.5" cy="2.5" r="2.5" transform="matrix(-1 0 0 1 194 40)" fill="#BDF0E8"/>
<circle cx="2" cy="2" r="2" transform="matrix(-1 0 0 1 193.5 48)" fill="#BDF0E8"/>
<circle cx="2" cy="2" r="2" transform="matrix(-1 0 0 1 193.5 55)" fill="#BDF0E8"/>
<circle cx="1.5" cy="1.5" r="1.5" transform="matrix(-1 0 0 1 193 62)" fill="#BDF0E8"/>
<circle cx="1" cy="1" r="1" transform="matrix(-1 0 0 1 192.5 68)" fill="#BDF0E8"/>
<circle cx="1" cy="1" r="1" transform="matrix(-1 0 0 1 192.5 73)" fill="#BDF0E8"/>
<circle cx="1" cy="1" r="1" transform="matrix(-1 0 0 1 183.5 15)" fill="#BDF0E8"/>
<circle cx="1.5" cy="1.5" r="1.5" transform="matrix(-1 0 0 1 184 20)" fill="#BDF0E8"/>
<circle cx="2" cy="2" r="2" transform="matrix(-1 0 0 1 184.5 26)" fill="#BDF0E8"/>
<circle cx="2" cy="2" r="2" transform="matrix(-1 0 0 1 184.5 33)" fill="#BDF0E8"/>
<circle cx="2.5" cy="2.5" r="2.5" transform="matrix(-1 0 0 1 185 40)" fill="#BDF0E8"/>
<circle cx="2" cy="2" r="2" transform="matrix(-1 0 0 1 184.5 48)" fill="#BDF0E8"/>
<circle cx="2" cy="2" r="2" transform="matrix(-1 0 0 1 184.5 55)" fill="#BDF0E8"/>
<circle cx="1.5" cy="1.5" r="1.5" transform="matrix(-1 0 0 1 184 62)" fill="#BDF0E8"/>
<circle cx="1" cy="1" r="1" transform="matrix(-1 0 0 1 183.5 68)" fill="#BDF0E8"/>
<circle cx="2" cy="2" r="2" transform="matrix(-1 0 0 1 175.5 26)" fill="#BDF0E8"/>
<circle cx="2" cy="2" r="2" transform="matrix(-1 0 0 1 175.5 33)" fill="#BDF0E8"/>
<circle cx="2.5" cy="2.5" r="2.5" transform="matrix(-1 0 0 1 176 40)" fill="#BDF0E8"/>
<circle cx="2" cy="2" r="2" transform="matrix(-1 0 0 1 175.5 48)" fill="#BDF0E8"/>
<circle cx="2" cy="2" r="2" transform="matrix(-1 0 0 1 175.5 55)" fill="#BDF0E8"/>
<circle cx="2" cy="2" r="2" transform="matrix(-1 0 0 1 166.5 33)" fill="#BDF0E8"/>
<circle cx="2.5" cy="2.5" r="2.5" transform="matrix(-1 0 0 1 167 40)" fill="#BDF0E8"/>
<circle cx="2" cy="2" r="2" transform="matrix(-1 0 0 1 166.5 48)" fill="#BDF0E8"/>
<circle cx="1" cy="1" r="1" transform="matrix(-1 0 0 1 156.5 15)" fill="#BDF0E8"/>
<circle cx="1.5" cy="1.5" r="1.5" transform="matrix(-1 0 0 1 157 20)" fill="#BDF0E8"/>
<circle cx="2" cy="2" r="2" transform="matrix(-1 0 0 1 157.5 26)" fill="#BDF0E8"/>
<circle cx="2" cy="2" r="2" transform="matrix(-1 0 0 1 157.5 33)" fill="#BDF0E8"/>
<circle cx="2.5" cy="2.5" r="2.5" transform="matrix(-1 0 0 1 158 40)" fill="#BDF0E8"/>
<circle cx="2" cy="2" r="2" transform="matrix(-1 0 0 1 157.5 48)" fill="#BDF0E8"/>
<circle cx="2" cy="2" r="2" transform="matrix(-1 0 0 1 157.5 55)" fill="#BDF0E8"/>
<circle cx="1.5" cy="1.5" r="1.5" transform="matrix(-1 0 0 1 157 62)" fill="#BDF0E8"/>
<circle cx="1" cy="1" r="1" transform="matrix(-1 0 0 1 156.5 68)" fill="#BDF0E8"/>
<circle cx="2" cy="2" r="2" transform="matrix(-1 0 0 1 148.5 26)" fill="#BDF0E8"/>
<circle cx="2" cy="2" r="2" transform="matrix(-1 0 0 1 148.5 33)" fill="#BDF0E8"/>
<circle cx="2.5" cy="2.5" r="2.5" transform="matrix(-1 0 0 1 149 40)" fill="#BDF0E8"/>
<circle cx="2" cy="2" r="2" transform="matrix(-1 0 0 1 148.5 48)" fill="#BDF0E8"/>
<circle cx="2" cy="2" r="2" transform="matrix(-1 0 0 1 148.5 55)" fill="#BDF0E8"/>
<circle cx="1" cy="1" r="1" transform="matrix(-1 0 0 1 138.5 15)" fill="#BDF0E8"/>
<circle cx="1.5" cy="1.5" r="1.5" transform="matrix(-1 0 0 1 139 20)" fill="#BDF0E8"/>
<circle cx="2" cy="2" r="2" transform="matrix(-1 0 0 1 139.5 26)" fill="#BDF0E8"/>
<circle cx="2" cy="2" r="2" transform="matrix(-1 0 0 1 139.5 33)" fill="#BDF0E8"/>
<circle cx="2.5" cy="2.5" r="2.5" transform="matrix(-1 0 0 1 140 40)" fill="#BDF0E8"/>
<circle cx="2" cy="2" r="2" transform="matrix(-1 0 0 1 139.5 48)" fill="#BDF0E8"/>
<circle cx="2" cy="2" r="2" transform="matrix(-1 0 0 1 139.5 55)" fill="#BDF0E8"/>
<circle cx="1.5" cy="1.5" r="1.5" transform="matrix(-1 0 0 1 139 62)" fill="#BDF0E8"/>
<circle cx="1" cy="1" r="1" transform="matrix(-1 0 0 1 138.5 68)" fill="#BDF0E8"/>
<circle cx="2" cy="2" r="2" transform="matrix(-1 0 0 1 130.5 26)" fill="#BDF0E8"/>
<circle cx="2" cy="2" r="2" transform="matrix(-1 0 0 1 130.5 33)" fill="#BDF0E8"/>
<circle cx="2.5" cy="2.5" r="2.5" transform="matrix(-1 0 0 1 131 40)" fill="#BDF0E8"/>
<circle cx="2" cy="2" r="2" transform="matrix(-1 0 0 1 130.5 48)" fill="#BDF0E8"/>
<circle cx="2" cy="2" r="2" transform="matrix(-1 0 0 1 130.5 55)" fill="#BDF0E8"/>
<circle cx="2" cy="2" r="2" transform="matrix(-1 0 0 1 121.5 33)" fill="#BDF0E8"/>
<circle cx="2.5" cy="2.5" r="2.5" transform="matrix(-1 0 0 1 122 40)" fill="#BDF0E8"/>
<circle cx="2" cy="2" r="2" transform="matrix(-1 0 0 1 121.5 48)" fill="#BDF0E8"/>
<circle cx="1" cy="1" r="1" transform="matrix(-1 0 0 1 111.5 10)" fill="#BDF0E8"/>
<circle cx="1" cy="1" r="1" transform="matrix(-1 0 0 1 111.5 15)" fill="#BDF0E8"/>
<circle cx="1.5" cy="1.5" r="1.5" transform="matrix(-1 0 0 1 112 20)" fill="#BDF0E8"/>
<circle cx="2" cy="2" r="2" transform="matrix(-1 0 0 1 112.5 26)" fill="#BDF0E8"/>
<circle cx="2" cy="2" r="2" transform="matrix(-1 0 0 1 112.5 33)" fill="#BDF0E8"/>
<circle cx="2.5" cy="2.5" r="2.5" transform="matrix(-1 0 0 1 113 40)" fill="#BDF0E8"/>
<circle cx="2" cy="2" r="2" transform="matrix(-1 0 0 1 112.5 48)" fill="#BDF0E8"/>
<circle cx="2" cy="2" r="2" transform="matrix(-1 0 0 1 112.5 55)" fill="#BDF0E8"/>
<circle cx="1.5" cy="1.5" r="1.5" transform="matrix(-1 0 0 1 112 62)" fill="#BDF0E8"/>
<circle cx="1" cy="1" r="1" transform="matrix(-1 0 0 1 111.5 68)" fill="#BDF0E8"/>
<circle cx="1" cy="1" r="1" transform="matrix(-1 0 0 1 111.5 73)" fill="#BDF0E8"/>
<circle cx="1" cy="1" r="1" transform="matrix(-1 0 0 1 102.5 15)" fill="#BDF0E8"/>
<circle cx="1.5" cy="1.5" r="1.5" transform="matrix(-1 0 0 1 103 20)" fill="#BDF0E8"/>
<circle cx="2" cy="2" r="2" transform="matrix(-1 0 0 1 103.5 26)" fill="#BDF0E8"/>
<circle cx="2" cy="2" r="2" transform="matrix(-1 0 0 1 103.5 33)" fill="#BDF0E8"/>
<circle cx="2.5" cy="2.5" r="2.5" transform="matrix(-1 0 0 1 104 40)" fill="#BDF0E8"/>
<circle cx="2" cy="2" r="2" transform="matrix(-1 0 0 1 103.5 48)" fill="#BDF0E8"/>
<circle cx="2" cy="2" r="2" transform="matrix(-1 0 0 1 103.5 55)" fill="#BDF0E8"/>
<circle cx="1.5" cy="1.5" r="1.5" transform="matrix(-1 0 0 1 103 62)" fill="#BDF0E8"/>
<circle cx="1" cy="1" r="1" transform="matrix(-1 0 0 1 102.5 68)" fill="#BDF0E8"/>
<circle cx="2" cy="2" r="2" transform="matrix(-1 0 0 1 94.5 26)" fill="#BDF0E8"/>
<circle cx="2" cy="2" r="2" transform="matrix(-1 0 0 1 94.5 33)" fill="#BDF0E8"/>
<circle cx="2.5" cy="2.5" r="2.5" transform="matrix(-1 0 0 1 95 40)" fill="#BDF0E8"/>
<circle cx="2" cy="2" r="2" transform="matrix(-1 0 0 1 94.5 48)" fill="#BDF0E8"/>
<circle cx="2" cy="2" r="2" transform="matrix(-1 0 0 1 94.5 55)" fill="#BDF0E8"/>
<circle cx="2" cy="2" r="2" transform="matrix(-1 0 0 1 85.5 33)" fill="#BDF0E8"/>
<circle cx="2.5" cy="2.5" r="2.5" transform="matrix(-1 0 0 1 86 40)" fill="#BDF0E8"/>
<circle cx="2" cy="2" r="2" transform="matrix(-1 0 0 1 85.5 48)" fill="#BDF0E8"/>
<circle cx="2.5" cy="2.5" r="2.5" transform="matrix(-1 0 0 1 77 40)" fill="#BDF0E8"/>
<circle cx="2" cy="2" r="2" transform="matrix(-1 0 0 1 67.5 26)" fill="#BDF0E8"/>
<circle cx="2" cy="2" r="2" transform="matrix(-1 0 0 1 67.5 33)" fill="#BDF0E8"/>
<circle cx="2.5" cy="2.5" r="2.5" transform="matrix(-1 0 0 1 68 40)" fill="#BDF0E8"/>
<circle cx="2" cy="2" r="2" transform="matrix(-1 0 0 1 67.5 48)" fill="#BDF0E8"/>
<circle cx="2" cy="2" r="2" transform="matrix(-1 0 0 1 67.5 55)" fill="#BDF0E8"/>
<circle cx="2" cy="2" r="2" transform="matrix(-1 0 0 1 58.5 33)" fill="#BDF0E8"/>
<circle cx="2.5" cy="2.5" r="2.5" transform="matrix(-1 0 0 1 59 40)" fill="#BDF0E8"/>
<circle cx="2" cy="2" r="2" transform="matrix(-1 0 0 1 58.5 48)" fill="#BDF0E8"/>
<circle cx="2" cy="2" r="2" transform="matrix(-1 0 0 1 49.5 26)" fill="#BDF0E8"/>
<circle cx="2" cy="2" r="2" transform="matrix(-1 0 0 1 49.5 33)" fill="#BDF0E8"/>
<circle cx="2.5" cy="2.5" r="2.5" transform="matrix(-1 0 0 1 50 40)" fill="#BDF0E8"/>
<circle cx="2" cy="2" r="2" transform="matrix(-1 0 0 1 49.5 48)" fill="#BDF0E8"/>
<circle cx="2" cy="2" r="2" transform="matrix(-1 0 0 1 49.5 55)" fill="#BDF0E8"/>
<circle cx="2" cy="2" r="2" transform="matrix(-1 0 0 1 40.5 33)" fill="#BDF0E8"/>
<circle cx="2.5" cy="2.5" r="2.5" transform="matrix(-1 0 0 1 41 40)" fill="#BDF0E8"/>
<circle cx="2" cy="2" r="2" transform="matrix(-1 0 0 1 40.5 48)" fill="#BDF0E8"/>
<circle cx="1" cy="1" r="1" transform="matrix(-1 0 0 1 30.5 15)" fill="#BDF0E8"/>
<circle cx="1.5" cy="1.5" r="1.5" transform="matrix(-1 0 0 1 31 20)" fill="#BDF0E8"/>
<circle cx="2" cy="2" r="2" transform="matrix(-1 0 0 1 31.5 26)" fill="#BDF0E8"/>
<circle cx="2" cy="2" r="2" transform="matrix(-1 0 0 1 31.5 33)" fill="#BDF0E8"/>
<circle cx="2.5" cy="2.5" r="2.5" transform="matrix(-1 0 0 1 32 40)" fill="#BDF0E8"/>
<circle cx="2" cy="2" r="2" transform="matrix(-1 0 0 1 31.5 48)" fill="#BDF0E8"/>
<circle cx="2" cy="2" r="2" transform="matrix(-1 0 0 1 31.5 55)" fill="#BDF0E8"/>
<circle cx="1.5" cy="1.5" r="1.5" transform="matrix(-1 0 0 1 31 62)" fill="#BDF0E8"/>
<circle cx="1" cy="1" r="1" transform="matrix(-1 0 0 1 30.5 68)" fill="#BDF0E8"/>
<circle cx="2" cy="2" r="2" transform="matrix(-1 0 0 1 22.5 26)" fill="#BDF0E8"/>
<circle cx="2" cy="2" r="2" transform="matrix(-1 0 0 1 22.5 33)" fill="#BDF0E8"/>
<circle cx="2.5" cy="2.5" r="2.5" transform="matrix(-1 0 0 1 23 40)" fill="#BDF0E8"/>
<circle cx="2" cy="2" r="2" transform="matrix(-1 0 0 1 22.5 48)" fill="#BDF0E8"/>
<circle cx="2" cy="2" r="2" transform="matrix(-1 0 0 1 22.5 55)" fill="#BDF0E8"/>
<circle cx="2" cy="2" r="2" transform="matrix(-1 0 0 1 13.5 33)" fill="#BDF0E8"/>
<circle cx="2.5" cy="2.5" r="2.5" transform="matrix(-1 0 0 1 14 40)" fill="#BDF0E8"/>
<circle cx="2" cy="2" r="2" transform="matrix(-1 0 0 1 13.5 48)" fill="#BDF0E8"/>
<circle cx="2.5" cy="2.5" r="2.5" transform="matrix(-1 0 0 1 5 40)" fill="#BDF0E8"/>
<circle cx="1" cy="1" r="1" transform="matrix(-1 0 0 1 372.5 10)" fill="#BDF0E8"/>
<circle cx="1" cy="1" r="1" transform="matrix(-1 0 0 1 372.5 15)" fill="#BDF0E8"/>
<circle cx="1.5" cy="1.5" r="1.5" transform="matrix(-1 0 0 1 373 20)" fill="#BDF0E8"/>
<circle cx="2" cy="2" r="2" transform="matrix(-1 0 0 1 373.5 26)" fill="#BDF0E8"/>
<circle cx="2" cy="2" r="2" transform="matrix(-1 0 0 1 373.5 33)" fill="#BDF0E8"/>
<circle cx="2.5" cy="2.5" r="2.5" transform="matrix(-1 0 0 1 374 40)" fill="#BDF0E8"/>
<circle cx="2" cy="2" r="2" transform="matrix(-1 0 0 1 373.5 48)" fill="#BDF0E8"/>
<circle cx="2" cy="2" r="2" transform="matrix(-1 0 0 1 373.5 55)" fill="#BDF0E8"/>
<circle cx="1.5" cy="1.5" r="1.5" transform="matrix(-1 0 0 1 373 62)" fill="#BDF0E8"/>
<circle cx="1" cy="1" r="1" transform="matrix(-1 0 0 1 372.5 68)" fill="#BDF0E8"/>
<circle cx="1" cy="1" r="1" transform="matrix(-1 0 0 1 372.5 73)" fill="#BDF0E8"/>
<circle cx="1" cy="1" r="1" transform="matrix(-1 0 0 1 363.5 15)" fill="#BDF0E8"/>
<circle cx="1.5" cy="1.5" r="1.5" transform="matrix(-1 0 0 1 364 20)" fill="#BDF0E8"/>
<circle cx="2" cy="2" r="2" transform="matrix(-1 0 0 1 364.5 26)" fill="#BDF0E8"/>
<circle cx="2" cy="2" r="2" transform="matrix(-1 0 0 1 364.5 33)" fill="#BDF0E8"/>
<circle cx="2.5" cy="2.5" r="2.5" transform="matrix(-1 0 0 1 365 40)" fill="#BDF0E8"/>
<circle cx="2" cy="2" r="2" transform="matrix(-1 0 0 1 364.5 48)" fill="#BDF0E8"/>
<circle cx="2" cy="2" r="2" transform="matrix(-1 0 0 1 364.5 55)" fill="#BDF0E8"/>
<circle cx="1.5" cy="1.5" r="1.5" transform="matrix(-1 0 0 1 364 62)" fill="#BDF0E8"/>
<circle cx="1" cy="1" r="1" transform="matrix(-1 0 0 1 363.5 68)" fill="#BDF0E8"/>
<circle cx="2" cy="2" r="2" transform="matrix(-1 0 0 1 355.5 26)" fill="#BDF0E8"/>
<circle cx="2" cy="2" r="2" transform="matrix(-1 0 0 1 355.5 33)" fill="#BDF0E8"/>
<circle cx="2.5" cy="2.5" r="2.5" transform="matrix(-1 0 0 1 356 40)" fill="#BDF0E8"/>
<circle cx="2" cy="2" r="2" transform="matrix(-1 0 0 1 355.5 48)" fill="#BDF0E8"/>
<circle cx="2" cy="2" r="2" transform="matrix(-1 0 0 1 355.5 55)" fill="#BDF0E8"/>
<circle cx="2" cy="2" r="2" transform="matrix(-1 0 0 1 346.5 33)" fill="#BDF0E8"/>
<circle cx="2.5" cy="2.5" r="2.5" transform="matrix(-1 0 0 1 347 40)" fill="#BDF0E8"/>
<circle cx="2" cy="2" r="2" transform="matrix(-1 0 0 1 346.5 48)" fill="#BDF0E8"/>
<circle cx="2.5" cy="2.5" r="2.5" transform="matrix(-1 0 0 1 338 40)" fill="#BDF0E8"/>
<circle cx="2" cy="2" r="2" transform="matrix(-1 0 0 1 328.5 26)" fill="#BDF0E8"/>
<circle cx="2" cy="2" r="2" transform="matrix(-1 0 0 1 328.5 33)" fill="#BDF0E8"/>
<circle cx="2.5" cy="2.5" r="2.5" transform="matrix(-1 0 0 1 329 40)" fill="#BDF0E8"/>
<circle cx="2" cy="2" r="2" transform="matrix(-1 0 0 1 328.5 48)" fill="#BDF0E8"/>
<circle cx="2" cy="2" r="2" transform="matrix(-1 0 0 1 328.5 55)" fill="#BDF0E8"/>
<circle cx="2" cy="2" r="2" transform="matrix(-1 0 0 1 319.5 33)" fill="#BDF0E8"/>
<circle cx="2.5" cy="2.5" r="2.5" transform="matrix(-1 0 0 1 320 40)" fill="#BDF0E8"/>
<circle cx="2" cy="2" r="2" transform="matrix(-1 0 0 1 319.5 48)" fill="#BDF0E8"/>
<circle cx="2" cy="2" r="2" transform="matrix(-1 0 0 1 310.5 26)" fill="#BDF0E8"/>
<circle cx="2" cy="2" r="2" transform="matrix(-1 0 0 1 310.5 33)" fill="#BDF0E8"/>
<circle cx="2.5" cy="2.5" r="2.5" transform="matrix(-1 0 0 1 311 40)" fill="#BDF0E8"/>
<circle cx="2" cy="2" r="2" transform="matrix(-1 0 0 1 310.5 48)" fill="#BDF0E8"/>
<circle cx="2" cy="2" r="2" transform="matrix(-1 0 0 1 310.5 55)" fill="#BDF0E8"/>
<circle cx="2" cy="2" r="2" transform="matrix(-1 0 0 1 301.5 33)" fill="#BDF0E8"/>
<circle cx="2.5" cy="2.5" r="2.5" transform="matrix(-1 0 0 1 302 40)" fill="#BDF0E8"/>
<circle cx="2" cy="2" r="2" transform="matrix(-1 0 0 1 301.5 48)" fill="#BDF0E8"/>
<circle cx="1" cy="1" r="1" transform="matrix(-1 0 0 1 291.5 15)" fill="#BDF0E8"/>
<circle cx="1.5" cy="1.5" r="1.5" transform="matrix(-1 0 0 1 292 20)" fill="#BDF0E8"/>
<circle cx="2" cy="2" r="2" transform="matrix(-1 0 0 1 292.5 26)" fill="#BDF0E8"/>
<circle cx="2" cy="2" r="2" transform="matrix(-1 0 0 1 292.5 33)" fill="#BDF0E8"/>
<circle cx="2.5" cy="2.5" r="2.5" transform="matrix(-1 0 0 1 293 40)" fill="#BDF0E8"/>
<circle cx="2" cy="2" r="2" transform="matrix(-1 0 0 1 292.5 48)" fill="#BDF0E8"/>
<circle cx="2" cy="2" r="2" transform="matrix(-1 0 0 1 292.5 55)" fill="#BDF0E8"/>
<circle cx="1.5" cy="1.5" r="1.5" transform="matrix(-1 0 0 1 292 62)" fill="#BDF0E8"/>
<circle cx="1" cy="1" r="1" transform="matrix(-1 0 0 1 291.5 68)" fill="#BDF0E8"/>
<circle cx="2" cy="2" r="2" transform="matrix(-1 0 0 1 283.5 26)" fill="#BDF0E8"/>
<circle cx="2" cy="2" r="2" transform="matrix(-1 0 0 1 283.5 33)" fill="#BDF0E8"/>
<circle cx="2.5" cy="2.5" r="2.5" transform="matrix(-1 0 0 1 284 40)" fill="#BDF0E8"/>
<circle cx="2" cy="2" r="2" transform="matrix(-1 0 0 1 283.5 48)" fill="#BDF0E8"/>
<circle cx="2" cy="2" r="2" transform="matrix(-1 0 0 1 283.5 55)" fill="#BDF0E8"/>
<circle cx="2" cy="2" r="2" transform="matrix(-1 0 0 1 274.5 33)" fill="#BDF0E8"/>
<circle cx="2.5" cy="2.5" r="2.5" transform="matrix(-1 0 0 1 275 40)" fill="#BDF0E8"/>
<circle cx="2" cy="2" r="2" transform="matrix(-1 0 0 1 274.5 48)" fill="#BDF0E8"/>
<circle cx="2.5" cy="2.5" r="2.5" transform="matrix(-1 0 0 1 266 40)" fill="#BDF0E8"/>
</svg>
